<?xml version="1.0" encoding="utf-8"?>
<!-- Generator: Adobe Illustrator 18.0.0, SVG Export Plug-In . SVG Version: 6.00 Build 0)  -->
<!DOCTYPE svg PUBLIC "-//W3C//DTD SVG 1.1//EN" "http://www.w3.org/Graphics/SVG/1.1/DTD/svg11.dtd">
<svg version="1.1" id="Capa_1" xmlns="http://www.w3.org/2000/svg" xmlns:xlink="http://www.w3.org/1999/xlink" x="0px" y="0px"
	 viewBox="0 0 64 64" enable-background="new 0 0 64 64" xml:space="preserve">
<g id="XMLID_1_">
	<g>
		<path fill="#FFFFFF" d="M43.3,26.5c-2.6,0-2.6,4,0,4C45.9,30.5,45.9,26.5,43.3,26.5z M49.4,8.6c-3.9,0-7.1,2.7-8,6.3
			c1,0.3,1.9,0.7,2.9,1.1c0.4-2.5,2.5-4.4,5.1-4.4c2.9,0,5.2,2.3,5.2,5.2c0,1.9-1,3.5-2.6,4.5c0.7,0.7,1.4,1.5,2,2.3
			c2.1-1.5,3.6-4,3.6-6.8C57.7,12.3,54,8.6,49.4,8.6z M21.4,30.5c2.6,0,2.6-4,0-4S18.8,30.5,21.4,30.5z M13.8,42.8
			c0,7,8.3,12.8,18.5,12.8s18.5-5.7,18.5-12.8S42.6,30,32.3,30S13.8,35.7,13.8,42.8z M4.7,16.9c0-5.9,4.8-10.7,10.7-10.7
			c4.4,0,8.3,2.6,9.9,6.7l0.5,1.1l1.2-0.2c3.5-0.6,7.2-0.6,10.7,0l1.2,0.2l0.5-1.1c1.7-4,5.5-6.7,9.9-6.7c5.9,0,10.7,4.8,10.7,10.7
			c0,3-1.3,5.9-3.6,8l-0.8,0.8l0.5,1c0.9,1.8,1.5,3.6,1.8,5.5c0.2,1.1,0.3,2.3,0.3,3.5c0,6.1-2.9,11.6-7.6,15.6
			c-4.7,4-11.1,6.5-18.2,6.5c-5,0-9.7-1.2-13.6-3.4C11.4,50.5,6.4,43.5,6.4,35.6c0-3.2,0.8-6.3,2.3-9l0.5-0.9l-0.9-0.8
			C6,22.8,4.7,19.9,4.7,16.9z M7.2,16.9c0,2.8,1.4,5.2,3.4,6.7c0.6-0.8,1.3-1.6,2-2.3c-1.5-0.9-2.5-2.5-2.5-4.4
			c0-2.9,2.3-5.2,5.2-5.2c2.6,0,4.7,1.9,5.1,4.3c0.9-0.4,1.9-0.8,2.8-1.1c-0.9-3.6-4.1-6.2-8-6.2C10.9,8.6,7.2,12.3,7.2,16.9z"/>
		<path d="M41.4,14.9c0.9-3.6,4.1-6.3,8-6.3c4.5,0,8.2,3.7,8.2,8.2c0,2.8-1.4,5.3-3.6,6.8c-0.6-0.8-1.3-1.6-2-2.3
			c1.5-0.9,2.6-2.6,2.6-4.5c0-2.9-2.4-5.2-5.2-5.2c-2.6,0-4.7,1.9-5.1,4.4C43.4,15.6,42.4,15.2,41.4,14.9z"/>
		<path d="M10.7,23.5c-2.1-1.5-3.4-3.9-3.4-6.7c0-4.5,3.7-8.2,8.2-8.2c3.9,0,7.1,2.7,8,6.2c-1,0.3-1.9,0.7-2.8,1.1
			c-0.4-2.4-2.6-4.3-5.1-4.3c-2.9,0-5.2,2.3-5.2,5.2c0,1.9,1,3.5,2.5,4.4C11.9,22,11.3,22.7,10.7,23.5z"/>
		<path d="M43.3,26.5c2.6,0,2.6,4,0,4C40.8,30.5,40.8,26.5,43.3,26.5z"/>
		<path d="M36.5,39.2c0-1-1.8-2.1-4.2-2.1c-2.3,0-4.2,1.1-4.2,2.1c0,1,1.8,2.1,4.2,2.1C34.7,41.2,36.5,40.1,36.5,39.2z M33.8,52.5
			c7.9-0.5,14-4.7,14-9.7c0-5.4-7-9.8-15.5-9.8h0c-8.6,0-15.5,4.4-15.5,9.8c0,5.1,6.2,9.3,14,9.7v-8.4c-3.3-0.5-5.7-2.5-5.7-5
			c0-2.8,3.1-5.1,7.2-5.1s7.2,2.2,7.2,5.1c0,2.5-2.4,4.5-5.7,5V52.5z M32.3,30c10.2,0,18.5,5.7,18.5,12.8s-8.3,12.8-18.5,12.8
			s-18.5-5.7-18.5-12.8S22.1,30,32.3,30z"/>
		<path d="M21.4,26.5c2.6,0,2.6,4,0,4S18.8,26.5,21.4,26.5z"/>
		<path d="M63,16.9c0,3.5-1.3,6.9-3.8,9.4c1.3,2.9,2,6,2,9.2c0,13.9-12.9,25.2-28.8,25.2S3.6,49.4,3.6,35.5c0-3.2,0.7-6.2,2-9.2
			c-2.4-2.5-3.8-5.9-3.8-9.5c0-7.6,6.2-13.7,13.7-13.7c5.2,0,9.9,2.9,12.2,7.4c3.1-0.5,6.4-0.5,9.5,0c2.3-4.6,7-7.4,12.2-7.4
			C56.8,3.1,63,9.3,63,16.9z M56.4,24.8c2.3-2,3.6-4.9,3.6-8c0-5.9-4.8-10.7-10.7-10.7c-4.4,0-8.2,2.6-9.9,6.7l-0.5,1.1l-1.2-0.2
			c-3.5-0.6-7.2-0.6-10.7,0l-1.2,0.2l-0.5-1.1c-1.7-4.1-5.6-6.7-9.9-6.7c-5.9,0-10.7,4.8-10.7,10.7c0,3.1,1.3,6,3.6,8l0.9,0.8
			l-0.5,0.9c-1.4,2.8-2.3,5.8-2.3,9c0,7.9,4.9,14.9,12.3,18.8c4,2.1,8.6,3.4,13.6,3.4c7.1,0,13.6-2.5,18.2-6.5
			c4.7-4,7.6-9.5,7.6-15.6c0-1.2-0.1-2.4-0.3-3.5c-0.3-1.9-1-3.7-1.8-5.5l-0.5-1L56.4,24.8z"/>
	</g>
	<g>
	</g>
</g>
</svg>
